<svg width="807" height="696" viewBox="0 0 807 696" fill="none" xmlns="http://www.w3.org/2000/svg">
<g clip-path="url(#clip0_3359_4131)">
<path d="M317.157 605.036H215.259V610.877H317.157V605.036Z" fill="#E0E0E0"/>
<path d="M257.061 477.455L228.904 605.054H303.531L275.374 477.455C273.21 467.637 259.225 467.637 257.061 477.455Z" fill="#E0E0E0"/>
<path d="M280.964 502.783H251.452L244.319 535.121H288.097L280.964 502.783Z" fill="#F5F5F5"/>
<path d="M289.34 540.812H243.077L239.463 557.169H292.972L289.34 540.812Z" fill="#F5F5F5"/>
<path d="M72.0667 610.877H87.2178L131.768 361.37H116.635L72.0667 610.877Z" fill="#E0E0E0"/>
<path d="M468.518 610.877H483.669L528.219 361.37H513.087L468.518 610.877Z" fill="#E0E0E0"/>
<path d="M572.788 373.526H72.0667V464.207H572.788V373.526Z" fill="#EBEBEB"/>
<path d="M126.347 460.193H74.4569L103.235 377.521H155.144L126.347 460.193Z" fill="#FAFAFA"/>
<path d="M230.165 460.193H178.256L207.053 377.521H258.962L230.165 460.193Z" fill="#FAFAFA"/>
<path d="M333.984 460.193H282.074L310.871 377.521H362.78L333.984 460.193Z" fill="#FAFAFA"/>
<path d="M437.802 460.193H385.893L414.689 377.521H466.598L437.802 460.193Z" fill="#FAFAFA"/>
<path d="M541.62 460.193H489.711L518.489 377.521H570.398L541.62 460.193Z" fill="#FAFAFA"/>
<path d="M176.337 610.877H161.185L116.635 361.37H131.768L176.337 610.877Z" fill="#E0E0E0"/>
<path d="M572.788 610.877H557.637L513.087 361.37H528.219L572.788 610.877Z" fill="#E0E0E0"/>
<path d="M776.886 603.226H643.255V610.896H776.886V603.226Z" fill="#E0E0E0"/>
<path d="M697.197 439.878L661.154 603.226H759.024L722.982 439.878C719.914 426.065 700.246 426.065 697.197 439.878Z" fill="#E0E0E0"/>
<path d="M729.419 469.107H690.722L681.368 511.508H738.773L729.419 469.107Z" fill="#F5F5F5"/>
<path d="M740.41 518.971H679.73L674.988 540.435H745.153L740.41 518.971Z" fill="#F5F5F5"/>
<path d="M807 346.106V401.322C807 405.015 803.405 407.654 799.886 406.542L3.82072 153.944C1.54334 153.228 0 151.118 0 148.724V93.5086C0 89.815 3.59486 87.1767 7.11444 88.2885L803.198 340.905C805.457 341.621 807 343.732 807 346.106Z" fill="#EBEBEB"/>
<path d="M744.363 384.719L788.179 398.627L763.881 332.632L720.046 318.724L744.363 384.719Z" fill="#FAFAFA"/>
<path d="M656.712 356.904L700.528 370.812L676.23 304.817L632.395 290.909L656.712 356.904Z" fill="#FAFAFA"/>
<path d="M569.061 329.089L612.877 342.997L588.579 277.002L544.744 263.094L569.061 329.089Z" fill="#FAFAFA"/>
<path d="M481.392 301.274L525.227 315.182L500.91 249.187L457.094 235.279L481.392 301.274Z" fill="#FAFAFA"/>
<path d="M393.741 273.459L437.576 287.367L413.259 221.372L369.443 207.464L393.741 273.459Z" fill="#FAFAFA"/>
<path d="M306.091 245.644L349.925 259.551L325.608 193.556L281.773 179.649L306.091 245.644Z" fill="#FAFAFA"/>
<path d="M218.44 217.829L262.256 231.736L237.957 165.741L194.123 151.834L218.44 217.829Z" fill="#FAFAFA"/>
<path d="M130.789 190.013L174.605 203.921L150.307 137.945L106.472 124.037L130.789 190.013Z" fill="#FAFAFA"/>
<path d="M43.1384 162.198L86.9543 176.106L62.6561 110.13L18.8213 96.2223L43.1384 162.198Z" fill="#FAFAFA"/>
<path d="M406.107 695.981C607.65 695.981 771.032 686.43 771.032 674.649C771.032 662.867 607.65 653.316 406.107 653.316C204.564 653.316 41.1809 662.867 41.1809 674.649C41.1809 686.43 204.564 695.981 406.107 695.981Z" fill="#F5F5F5"/>
<path d="M550.033 658.329H528.332V3.54288C528.332 3.00905e-05 550.033 3.00905e-05 550.033 3.54288V658.329Z" fill="#263238"/>
<path d="M550.033 249.432L528.332 253.804V223.765H550.033V249.432Z" fill="black"/>
<path d="M680.69 252.503L376.162 229.833C363.778 228.909 354.386 217.998 355.308 205.598L368.031 34.3731C368.954 21.9731 379.851 12.5695 392.235 13.4929L696.764 36.1822C709.148 37.1056 718.54 48.0168 717.618 60.4168L704.895 231.642C703.972 244.042 693.075 253.427 680.69 252.503Z" fill="white"/>
<path d="M685.866 244.796C685.226 244.796 684.586 244.777 683.965 244.72L379.437 222.05C372.699 221.541 366.526 218.432 362.084 213.268C357.642 208.105 355.478 201.547 355.967 194.8L368.69 23.575C369.198 16.8285 372.304 10.6474 377.461 6.19996C382.618 1.75255 389.168 -0.433462 395.906 0.0753508L700.434 22.7458C707.172 23.2546 713.345 26.364 717.787 31.5276C722.229 36.6911 724.393 43.2491 723.904 49.9956L711.181 221.221C710.673 227.967 707.567 234.148 702.41 238.577C697.743 242.629 691.927 244.796 685.866 244.796ZM394.024 5.65345C389.318 5.65345 384.782 7.33065 381.15 10.4778C377.141 13.9452 374.713 18.7318 374.318 23.9896L361.594 195.215C360.785 206.088 368.972 215.605 379.832 216.415L684.361 239.086C689.593 239.481 694.693 237.785 698.702 234.318C702.711 230.85 705.139 226.064 705.534 220.825L718.258 49.5998C719.067 38.7263 710.88 29.2096 700.02 28.3993L395.492 5.70999C395.002 5.6723 394.513 5.65345 394.024 5.65345Z" fill="#053060"/>
<path d="M255.405 200.981L256.026 204.675L256.741 208.613C257.249 211.233 257.757 213.871 258.36 216.491C259.508 221.711 260.844 226.874 262.35 231.887C263.103 234.393 263.912 236.843 264.815 239.236C265.681 241.63 266.603 243.985 267.62 246.19C269.653 250.638 271.968 254.708 274.527 257.931L269.37 254.539C270.575 255.142 271.723 255.65 273.68 255.537C275.562 255.443 278.103 254.746 280.701 253.446C283.336 252.202 286.084 250.449 288.794 248.433C290.149 247.434 291.504 246.379 292.84 245.248C293.518 244.701 294.177 244.136 294.835 243.552C295.475 243.024 296.191 242.346 296.699 241.95L297.715 241.14C300.726 238.728 305.149 239.218 307.559 242.233C309.271 244.381 309.516 247.227 308.443 249.563C307.897 250.751 307.502 251.636 306.994 252.635C306.505 253.596 305.996 254.539 305.469 255.462C304.378 257.309 303.23 259.137 301.969 260.889C299.428 264.432 296.454 267.805 292.822 270.896C291.015 272.441 288.963 273.873 286.742 275.193C284.521 276.512 282.037 277.68 279.251 278.49C276.485 279.32 273.492 279.866 270.349 279.904C267.206 279.941 264.025 279.433 261.014 278.566C259.282 278.057 257.776 277.134 256.591 275.928L255.857 275.174C250.662 269.859 246.766 264.112 243.642 258.289C240.461 252.484 237.958 246.567 235.868 240.631C233.723 234.714 232.085 228.721 230.655 222.728C229.977 219.713 229.319 216.717 228.81 213.683C228.547 212.156 228.283 210.649 228.058 209.103C227.832 207.52 227.643 206.107 227.436 204.26C226.589 196.496 232.179 189.523 239.934 188.675C247.387 187.865 254.125 193.029 255.367 200.34L255.405 200.981Z" fill="#263238"/>
<path d="M296.322 240.932C292.351 242.195 287.702 246.793 289.151 252.183C290.619 257.573 306.712 261.662 307.239 251.919C302.59 242.647 296.322 240.932 296.322 240.932Z" fill="white"/>
<path d="M294.214 246.19L295.927 243.571L313.506 238.822C313.506 238.822 316.066 250.035 303.361 254.312C302.458 254.614 301.479 254.501 300.632 254.049L295.569 251.41C293.668 250.393 293.029 247.981 294.214 246.19Z" fill="#B55B52"/>
<path d="M161.581 181.872C184.053 177.802 214.506 177.01 236.583 180.798C247.801 182.72 255.725 192.916 254.727 204.279C253.466 218.808 251.848 231.642 251.019 241.724C252.017 267.278 249.852 309.98 249.852 318.894L156.33 320.213C152.17 308.548 153.525 255.99 146.223 203.092C144.849 193.047 151.605 183.681 161.581 181.872Z" fill="#263238"/>
<path opacity="0.2" d="M209.613 319.007L207.749 318.781C213.057 276.851 207.806 206.597 207.749 205.9L209.631 205.749C209.669 206.446 214.939 276.889 209.613 319.007Z" fill="black"/>
<path d="M218.101 182.965C214.412 181.967 217.743 178.16 217.743 178.16C217.743 178.16 234.475 178.16 246.032 180.44C247.801 181.816 245.9 183.55 245.9 183.55C245.9 183.55 229.036 185.943 218.101 182.965Z" fill="#053060"/>
<path opacity="0.2" d="M212.812 177.576C212.812 177.576 218.364 188.732 210.93 198.871C216.821 198.908 222.223 202.64 222.223 202.64C222.223 202.64 224.877 193.085 217.405 178.537C216.595 177.18 212.812 177.576 212.812 177.576Z" fill="black"/>
<path d="M218.741 182.984C220.19 189.787 207.561 202.64 207.561 202.64C207.561 202.64 185.22 190.918 183.809 184.19L218.741 182.984Z" fill="#407BFF"/>
<path opacity="0.2" d="M160.226 215.077C162.672 219.807 159.699 239.67 150.834 249.432C150.25 240.801 149.516 231.793 148.575 222.596L160.226 215.077Z" fill="black"/>
<path d="M186.199 148.083L211.514 160.238C208.822 167.418 207.542 174.881 215.052 178.443C219.306 180.459 221.244 186.018 218.703 190.24C216.539 193.858 212.869 197.005 207.185 197.57C198.395 198.456 189.737 192.803 184.712 187.488C182.642 185.302 184.674 182.739 184.938 179.686C185.879 168.907 187.573 157.619 186.199 148.083Z" fill="#B55B52"/>
<path opacity="0.2" d="M197.849 150.496L211.495 160.22C210.704 162.293 210.064 164.365 209.725 166.382C204.117 168.229 195.214 163.329 195.083 158.448C194.988 156.017 197.285 151.683 197.849 150.496Z" fill="black"/>
<path d="M215.598 107.133C220.416 111.072 225.949 128.673 218.854 135.797C208.37 123.623 207.203 105.305 215.598 107.133Z" fill="#263238"/>
<path d="M179.197 127.524C181.117 142.543 181.456 151.438 189.587 158.618C201.802 169.416 219.964 161.124 222.58 145.784C224.933 131.99 221.414 109.734 206.262 104.834C191.337 99.9913 177.278 112.504 179.197 127.524Z" fill="#B55B52"/>
<path d="M179.687 140.47C186.801 140.998 189.267 123.774 184.844 114.031C187.93 115.312 196.72 114.05 199.186 110.017C213.358 114.068 218.666 114.144 220.491 108.264C222.317 102.403 199.976 97.2399 187.065 100.01C174.153 102.78 177.955 112.146 177.955 112.146C177.955 112.146 156.085 119.213 179.687 140.47Z" fill="#263238"/>
<path d="M174.492 141.638C176.657 145.049 179.931 147.16 182.83 147.857C187.215 148.913 188.721 144.503 186.952 140.074C185.352 136.098 181.136 130.746 177.014 131.67C172.949 132.593 172.027 137.738 174.492 141.638Z" fill="#B55B52"/>
<path d="M199.261 130.03C199.336 131.255 200.051 132.197 200.861 132.141C201.67 132.084 202.254 131.029 202.178 129.804C202.103 128.579 201.388 127.618 200.578 127.693C199.769 127.769 199.186 128.805 199.261 130.03Z" fill="#263238"/>
<path d="M215.918 128.692C215.993 129.917 216.708 130.859 217.517 130.803C218.327 130.746 218.91 129.691 218.835 128.466C218.76 127.241 218.044 126.299 217.235 126.355C216.426 126.412 215.842 127.448 215.918 128.692Z" fill="#263238"/>
<path d="M213.226 129.936C213.226 129.936 216.482 136.814 219.776 140.018C217.743 142.204 213.979 141.563 213.979 141.563L213.226 129.936Z" fill="#A02724"/>
<path d="M205.585 120.306C205.66 120.4 205.735 120.494 205.754 120.626C205.848 121.022 205.604 121.399 205.208 121.493C201.294 122.417 198.847 120.155 198.734 120.061C198.452 119.778 198.433 119.326 198.715 119.043C198.997 118.761 199.449 118.742 199.731 119.006C199.807 119.081 201.745 120.815 204.87 120.08C205.152 120.042 205.415 120.118 205.585 120.306Z" fill="#263238"/>
<path d="M208.634 123.868C208.521 123.811 208.446 123.717 208.37 123.604C208.163 123.265 208.276 122.812 208.615 122.605C212.059 120.551 215.09 121.964 215.221 122.021C215.579 122.191 215.73 122.624 215.56 122.982C215.391 123.34 214.958 123.491 214.6 123.321C214.506 123.284 212.135 122.191 209.387 123.83C209.142 124 208.86 124 208.634 123.868Z" fill="#263238"/>
<path d="M222.75 117.027C222.524 117.102 222.279 117.065 222.072 116.895C219.626 114.86 217.122 115.614 217.028 115.633C216.652 115.746 216.238 115.538 216.125 115.161C216.012 114.785 216.219 114.37 216.595 114.257C216.727 114.219 219.927 113.239 222.995 115.783C223.296 116.028 223.352 116.499 223.089 116.801C222.995 116.914 222.882 116.989 222.75 117.027Z" fill="#263238"/>
<path d="M304.773 304.76C303.945 303.234 302.044 302.669 300.519 303.498L277.501 315.954L266.622 295.79C265.794 294.264 263.893 293.698 262.369 294.528C260.844 295.357 260.28 297.26 261.108 298.787L271.986 318.951L192.636 361.879C191.111 362.709 190.547 364.612 191.375 366.138C192.203 367.665 194.104 368.23 195.628 367.401L303.512 309.019C305.037 308.209 305.601 306.287 304.773 304.76Z" fill="#053060"/>
<path d="M303.098 410.725C265.493 382.458 149.573 371.076 189.624 319.459L249.871 318.894C249.871 318.894 334.642 362.445 339.178 407.974C343.902 455.313 352.278 529.882 352.278 529.882L328.94 538.174C328.958 538.174 294.873 446.738 303.098 410.725Z" fill="#053060"/>
<path opacity="0.2" d="M191.695 345.371C190.302 348.405 189.003 351.59 187.836 354.907C197.209 365.554 215.692 373.752 235.718 381.365C229.601 370.435 215.918 358.393 191.695 345.371Z" fill="#053060"/>
<path d="M329.203 546.447L353.332 540.228C354.8 539.851 356.475 539.794 357.943 540.454C366.375 544.261 371.758 543.13 380.096 542.602C390.09 541.98 387.831 552.703 380.83 554.531C369.236 557.546 370.102 556.887 360.221 559.468C357.981 560.053 353.37 561.24 353.37 561.24L349.455 558.847L347.535 562.672C347.535 562.672 339.912 564.538 334.831 565.782C333.419 566.121 332.007 565.235 331.8 563.803L329.203 546.447Z" fill="#053060"/>
<path d="M329.824 548.84C330.182 548.67 357.322 541.057 357.322 541.057L353.125 520.158L322.954 528.337L329.824 548.84Z" fill="#053060"/>
<path d="M160.997 474.12C162.145 405.449 147.728 335.553 156.33 320.232L226.194 319.252C226.194 319.252 205.303 433.735 199.788 479.472C194.066 527.036 165.91 650.697 165.91 650.697L143.38 651.055C143.399 651.036 146.053 523.399 160.997 474.12Z" fill="#053060"/>
<path d="M142.552 654.673L163.293 654.353C164.818 654.334 166.474 654.673 167.754 655.672C175.207 661.363 176.073 661.551 184.336 663.021C194.236 664.774 189.794 674.668 182.548 674.781C170.577 674.969 171.556 674.536 161.355 674.686C159.059 674.724 150.269 674.781 150.269 674.781L148.65 671.52L146.825 674.781H143.907C142.496 674.781 141.329 673.556 141.423 672.142L142.552 654.673Z" fill="#263238"/>
<path d="M142.477 657.142C142.835 657.066 168.545 658.329 168.545 658.329L170.257 634.81L142.327 635.602L142.477 657.142Z" fill="#263238"/>
<path d="M211.89 176.238C211.89 176.238 218.364 188.732 210.93 198.871C216.821 198.908 223.258 201.434 223.258 201.434C223.258 201.434 228.509 188.713 216.934 177.331C216.106 175.974 211.89 176.238 211.89 176.238Z" fill="white"/>
<path d="M153.789 327.412C187.196 329.409 225.498 330.031 249.457 327.412C249.721 327.374 249.965 327.205 250.116 326.884C251.622 323.813 252.356 318.498 252.186 314.089C252.168 313.41 251.753 312.901 251.283 312.92C219.663 314.145 188.25 314.089 155.219 312.901C154.843 312.882 154.504 313.203 154.372 313.712C153.318 317.575 152.754 321.777 152.961 326.206C152.961 326.865 153.337 327.393 153.789 327.412Z" fill="#263238"/>
<path opacity="0.2" d="M153.789 327.412C187.196 329.409 225.498 330.031 249.457 327.412C249.721 327.374 249.965 327.205 250.116 326.884C251.622 323.813 252.356 318.498 252.186 314.089C252.168 313.41 251.753 312.901 251.283 312.92C219.663 314.145 188.25 314.089 155.219 312.901C154.843 312.882 154.504 313.203 154.372 313.712C153.318 317.575 152.754 321.777 152.961 326.206C152.961 326.865 153.337 327.393 153.789 327.412Z" fill="black"/>
<path d="M210.761 332.594C207.147 332.594 203.91 332.18 203.684 332.161L202.084 331.954L202.046 330.333C202.028 329.918 201.802 320.194 202.348 312.355L202.46 310.772L204.023 310.602C211.118 309.848 218.026 310.32 218.308 310.338L219.983 310.451L220.058 312.129C220.077 312.581 220.491 323.172 219.418 330.144L219.249 331.256L218.195 331.633C216.162 332.387 213.358 332.594 210.761 332.594ZM205.773 328.599C208.521 328.844 212.963 329.051 215.842 328.411C216.445 323.511 216.388 317.066 216.332 314.032C214.148 313.957 210.177 313.881 205.98 314.22C205.698 319.648 205.735 325.735 205.773 328.599Z" fill="white"/>
<path d="M174.454 312.882C174.454 312.882 173.909 323.454 173.137 330.182C171.65 331.727 168.865 330.54 168.865 330.54C168.865 330.54 169.41 320.76 170.088 313.09C172.328 312.374 174.454 312.882 174.454 312.882Z" fill="#407BFF"/>
<path d="M243.416 312.882C243.416 312.882 242.87 323.454 242.098 330.182C240.611 331.727 237.826 330.54 237.826 330.54C237.826 330.54 238.372 320.76 239.049 313.09C241.289 312.374 243.416 312.882 243.416 312.882Z" fill="#407BFF"/>
<path d="M221.602 217.452C222.618 231.077 231.295 234.148 232.518 234.111C233.742 234.092 241.929 230.662 240.912 217.037C237.449 217.131 234.174 215.624 230.975 213.362C228.302 215.982 225.215 217.433 221.602 217.452Z" fill="#053060"/>
<path d="M219.795 105.89C229.469 107.51 233.12 112.033 211.325 114.671C189.53 117.31 173.382 115.312 173.382 115.312C173.382 115.312 202.442 105.814 219.795 105.89Z" fill="#263238"/>
<path d="M171.631 116.443C171.631 116.443 190.584 110.017 220.454 106.53C220.943 100.5 216.238 96.1092 216.238 96.1092C216.238 96.1092 227.267 94.1305 221.79 90.9268C218.026 88.722 209.029 88.477 199.092 82.0697C195.007 85.801 183.827 91.8691 176.186 92.6417C174.285 95.883 169.354 103.986 161.355 107.133C161.468 110.676 169.429 111.581 169.429 111.581C169.429 111.581 169.053 113.955 171.631 116.443Z" fill="#053060"/>
<path opacity="0.8" d="M169.41 111.562C185.615 101.028 201.162 96.4484 216.238 96.0903C216.238 96.0903 220.943 100.5 220.454 106.512C190.584 109.998 171.631 116.424 171.631 116.424C169.053 113.955 169.41 111.562 169.41 111.562Z" fill="#263238"/>
<path d="M198.15 93.2259C200.014 102.498 206.564 104.175 207.448 104.118C208.333 104.043 213.979 101.329 212.116 92.0575C209.613 92.2837 207.109 91.4168 204.606 90.0034C202.893 91.9068 200.785 93.0375 198.15 93.2259Z" fill="white"/>
<path d="M209.142 122.172C211.288 122.473 214.807 138.642 203.59 139.509C194.16 140.244 191.224 131.575 191.224 128.56C191.243 124.056 206.112 121.757 209.142 122.172Z" fill="#263238"/>
<path d="M213.904 121.983C212.568 122.794 215.56 140.018 223.39 138.209C229.977 136.682 228.867 127.316 227.794 124.301C226.194 119.778 215.786 120.834 213.904 121.983Z" fill="#263238"/>
<g opacity="0.2">
<path d="M205.19 122.36L211.043 133.045C210.554 135.08 209.556 136.946 207.806 138.152L199.731 123.359C201.614 122.888 203.552 122.549 205.19 122.36Z" fill="white"/>
<path d="M197.36 124L205.641 139.151C205.039 139.339 204.343 139.452 203.609 139.509C203.138 139.547 202.705 139.566 202.254 139.547L194.386 125.168C195.271 124.753 196.268 124.377 197.36 124Z" fill="white"/>
<path d="M223.371 121.305L228.566 130.784C228.453 132.423 228.095 134.063 227.267 135.382L219.4 120.966C220.736 120.966 222.129 121.06 223.371 121.305Z" fill="white"/>
<path d="M226.27 136.682C225.818 137.134 225.253 137.511 224.594 137.813L215.617 121.399C216.219 121.267 216.934 121.173 217.706 121.079L226.27 136.682Z" fill="white"/>
</g>
<path d="M329.034 225.574C329.994 225.159 328.394 221.315 327.415 221.729L195.798 277.002C195.459 276.493 194.838 276.267 194.254 276.512L188.759 278.83C188.194 279.075 187.912 279.678 188.025 280.262L170.728 287.536C166.851 289.157 163.388 291.625 160.583 294.772L152.829 303.441C152.528 307.606 149.027 310.809 144.849 310.715L143.701 310.696L103.912 334.799C100.92 336.608 99.4517 340.189 100.336 343.6C102.049 350.233 104.402 355.566 107.263 359.901C109.973 364.028 115.789 364.612 119.346 361.201L159.623 322.437C161.317 320.797 162.39 318.611 162.616 316.256L163.105 311.281L171.801 301.557C174.285 305.778 179.517 307.662 184.147 305.702C189.192 303.592 191.582 297.75 189.455 292.7C189.399 292.586 189.323 292.492 189.267 292.379L192.485 291.022C192.805 291.55 193.464 291.795 194.047 291.55L199.543 289.232C200.127 288.987 200.409 288.346 200.258 287.743L277.03 255.5C277.915 255.123 278.348 254.105 277.972 253.201L319.36 235.825C319.999 235.562 319.021 233.206 318.381 233.47L315.313 234.751L315.162 231.397L329.034 225.574ZM183.357 303.761C179.499 305.382 175.057 303.648 173.288 299.898L174.436 298.598L175.019 298.353C175.527 299.013 176.092 299.653 176.77 300.181C178.859 301.82 181.456 302.537 184.091 302.235L183.846 300.162C181.776 300.407 179.724 299.842 178.068 298.541C177.673 298.24 177.334 297.901 177.014 297.524L187.385 293.171C187.441 293.284 187.516 293.378 187.573 293.491C189.21 297.486 187.328 302.084 183.357 303.761ZM311.586 236.315L277.012 250.826L275.788 247.924L311.417 232.961L311.586 236.315Z" fill="#407BFF"/>
<path opacity="0.2" d="M329.034 225.574C329.994 225.159 328.394 221.315 327.415 221.729L195.798 277.002C195.459 276.493 194.838 276.267 194.254 276.512L188.759 278.83C188.194 279.075 187.912 279.678 188.025 280.262L170.728 287.536C166.851 289.157 163.388 291.625 160.583 294.772L152.829 303.441C152.528 307.606 149.027 310.809 144.849 310.715L143.701 310.696L103.912 334.799C100.92 336.608 99.4517 340.189 100.336 343.6C102.049 350.233 104.402 355.566 107.263 359.901C109.973 364.028 115.789 364.612 119.346 361.201L159.623 322.437C161.317 320.797 162.39 318.611 162.616 316.256L163.105 311.281L171.801 301.557C174.285 305.778 179.517 307.662 184.147 305.702C189.192 303.592 191.582 297.75 189.455 292.7C189.399 292.586 189.323 292.492 189.267 292.379L192.485 291.022C192.805 291.55 193.464 291.795 194.047 291.55L199.543 289.232C200.127 288.987 200.409 288.346 200.258 287.743L277.03 255.5C277.915 255.123 278.348 254.105 277.972 253.201L319.36 235.825C319.999 235.562 319.021 233.206 318.381 233.47L315.313 234.751L315.162 231.397L329.034 225.574ZM183.357 303.761C179.499 305.382 175.057 303.648 173.288 299.898L174.436 298.598L175.019 298.353C175.527 299.013 176.092 299.653 176.77 300.181C178.859 301.82 181.456 302.537 184.091 302.235L183.846 300.162C181.776 300.407 179.724 299.842 178.068 298.541C177.673 298.24 177.334 297.901 177.014 297.524L187.385 293.171C187.441 293.284 187.516 293.378 187.573 293.491C189.21 297.486 187.328 302.084 183.357 303.761ZM311.586 236.315L277.012 250.826L275.788 247.924L311.417 232.961L311.586 236.315Z" fill="black"/>
<path d="M278.254 247.604L241.778 262.925C240.517 263.452 239.896 264.884 240.348 266.166L241.835 270.312C242.343 271.706 243.886 272.385 245.26 271.819L281.736 256.498C282.997 255.971 283.618 254.539 283.166 253.257L281.679 249.111C281.171 247.717 279.609 247.038 278.254 247.604Z" fill="#407BFF"/>
<path d="M301.479 233.338L302.74 232.999C305.996 232.113 309.478 233.168 311.68 235.712L312.81 236.994C314.108 238.483 313.563 240.782 311.737 241.536L299.334 246.661C297.847 247.283 296.153 246.548 295.569 245.041C293.668 240.16 296.435 234.714 301.479 233.338Z" fill="#B55B52"/>
<path d="M170.088 207.332L169.147 208.463L168.055 209.801L165.834 212.571C164.366 214.474 162.879 216.396 161.43 218.337C158.532 222.257 155.727 226.29 153.017 230.379C150.25 234.45 147.766 238.69 145.206 242.911C142.759 247.189 140.388 251.504 138.148 255.895L136.492 259.212L136.078 260.022C136.04 260.117 135.984 260.211 135.946 260.286C135.833 260.437 135.739 260.682 135.645 260.946C135.25 261.963 134.892 263.509 134.779 265.337C134.535 268.993 135.005 273.515 135.852 278.076C137.527 287.253 140.708 297.109 143.87 306.475L143.983 306.833C145.225 310.527 143.249 314.541 139.56 315.785C136.661 316.765 133.556 315.747 131.749 313.467C128.173 308.925 125.237 304.421 122.432 299.559C119.647 294.716 117.144 289.647 115.054 284.2C113.003 278.717 111.215 272.912 110.65 266.072C110.387 262.661 110.368 258.929 111.253 254.859C111.46 253.841 111.704 252.824 112.081 251.749L112.608 250.167L112.984 249.168L114.49 245.286C118.555 234.94 123.543 224.971 129.246 215.416C132.125 210.649 135.156 205.975 138.468 201.452C140.124 199.191 141.818 196.948 143.606 194.744C144.529 193.651 145.394 192.539 146.373 191.446L147.841 189.787L149.516 187.978C154.805 182.249 163.726 181.891 169.448 187.187C175 192.313 175.49 200.887 170.69 206.616L170.088 207.332Z" fill="#263238"/>
<path d="M184.825 184.398C188.608 183.06 183.809 179.027 183.809 179.027C183.809 179.027 163.858 179.649 151.982 182.796C150.213 184.492 152.245 186.527 152.245 186.527C152.245 186.527 173.626 188.374 184.825 184.398Z" fill="#053060"/>
<path opacity="0.2" d="M184.543 178.65C184.543 178.65 187.479 189.787 200.936 198.908C195.045 198.946 186.745 204.788 186.745 204.788C186.745 204.788 178.915 194.932 181.682 179.498C182.491 178.122 184.543 178.65 184.543 178.65Z" fill="black"/>
<path d="M184.938 176.634C184.938 176.634 188.439 188.713 200.936 198.908C195.045 198.946 186.274 201.848 186.274 201.848C186.274 201.848 178.915 194.932 181.682 179.498C182.491 178.122 184.938 176.634 184.938 176.634Z" fill="white"/>
<path d="M141.894 305.608L153.601 315.69L138.073 325.791C138.073 325.791 128.587 315.37 133.292 309.434L141.894 305.608Z" fill="#B55B52"/>
<path d="M131.674 314.107C131.674 314.107 129.246 312.185 128.493 309.961C132.22 306.098 139.748 302.913 143.155 302.047C145.225 304.007 145.319 308.077 145.319 308.077C145.319 308.077 135.4 309.792 131.674 314.107Z" fill="white"/>
<path d="M154.918 331.69L148.876 334.309C146.467 335.346 143.663 334.498 142.251 332.293L138.073 325.791L153.6 315.69L157.666 324.547C158.908 327.28 157.666 330.502 154.918 331.69Z" fill="#B55B52"/>
<path d="M201.933 146.595C208.427 142.581 214.13 145.2 214.374 145.313C214.619 145.426 214.713 145.709 214.6 145.954C214.487 146.199 214.205 146.293 213.96 146.18C213.904 146.161 208.464 143.674 202.442 147.405C202.216 147.537 201.933 147.48 201.783 147.254C201.651 147.028 201.708 146.746 201.933 146.595Z" fill="#263238"/>
<path d="M171.142 217.244L196.513 216.264L196.419 214.21L171.048 215.19L171.142 217.244Z" fill="white"/>
<path d="M390.843 676.948H341.55L377.386 392.069H426.66L390.843 676.948Z" fill="#407BFF"/>
<path opacity="0.4" d="M390.843 676.948H341.55L377.386 392.069H426.66L390.843 676.948Z" fill="black"/>
<path d="M337.146 676.948H341.55L377.385 392.069H372.981L337.146 676.948Z" fill="#263238"/>
<path d="M574.633 676.948H525.34L561.175 392.069H610.449L574.633 676.948Z" fill="#407BFF"/>
<path opacity="0.4" d="M574.633 676.948H525.34L561.175 392.069H610.449L574.633 676.948Z" fill="black"/>
<path d="M520.935 676.948H525.339L561.175 392.069H556.752L520.935 676.948Z" fill="#263238"/>
<path d="M436.466 643.046H615.192L607.382 581.046H428.655L436.466 643.046Z" fill="#053060"/>
<path d="M436.465 643.046H433.529L425.737 581.046H428.655L436.465 643.046Z" fill="#263238"/>
<path d="M605.33 583.741L612.445 640.351H601.886L573.541 583.741H605.33Z" fill="white"/>
<path d="M555.529 583.741L583.874 640.351H545.102L516.738 583.741H555.529Z" fill="white"/>
<path d="M498.745 583.741L527.09 640.351H488.318L459.955 583.741H498.745Z" fill="white"/>
<path d="M441.961 583.741L470.325 640.351H438.517L431.384 583.741H441.961Z" fill="white"/>
<path d="M598.065 676.948H647.358L611.541 392.069H562.248L598.065 676.948Z" fill="#053060"/>
<path opacity="0.2" d="M578.208 518.989L630.061 539.38L615.192 421.071H565.899L578.208 518.989Z" fill="black"/>
<path d="M598.065 676.948H593.661L557.844 392.069H562.248L598.065 676.948Z" fill="#263238"/>
<path d="M414.294 676.948H463.568L427.751 392.069H378.458L414.294 676.948Z" fill="#053060"/>
<path opacity="0.2" d="M394.419 518.989L446.271 539.38L431.403 421.071H382.11L394.419 518.989Z" fill="black"/>
<path d="M414.294 676.948H409.871L374.054 392.069H378.458L414.294 676.948Z" fill="#263238"/>
<path d="M374.732 505.836H643.876L632.132 412.459H363.006L374.732 505.836Z" fill="#053060"/>
<path d="M374.732 505.836H370.327L358.583 412.459H363.006L374.732 505.836Z" fill="#263238"/>
<path d="M629.045 416.548L639.754 501.765H623.85L581.145 416.548H629.045Z" fill="white"/>
<path d="M554.042 416.548L596.729 501.765H538.345L495.64 416.548H554.042Z" fill="white"/>
<path d="M468.518 416.548L511.224 501.765H452.821L410.135 416.548H468.518Z" fill="white"/>
<path d="M383.032 416.548L425.737 501.765H377.837L367.109 416.548H383.032Z" fill="white"/>
<path d="M478.998 85.1369L479.256 79.3301L494.835 57.0411L499.842 57.2641L499.484 65.3016L496.521 65.1696L486.697 79.2862L486.685 79.5587L507.375 80.4803L507.112 86.3892L478.998 85.1369ZM495.465 92.0128L495.816 84.1116L496.066 81.5463L497.151 57.1443L504.065 57.4522L502.515 92.3269L495.465 92.0128ZM525.392 94.1137C522.464 93.9719 519.976 93.1388 517.928 91.6143C515.891 90.0904 514.366 87.9465 513.351 85.1827C512.348 82.4194 511.937 79.1308 512.117 75.3169C512.286 71.5138 512.992 68.2977 514.235 65.6686C515.49 63.04 517.198 61.0743 519.36 59.7715C521.534 58.4579 524.08 57.866 526.998 57.996C529.915 58.1259 532.393 58.9415 534.431 60.4428C536.48 61.9446 538.012 64.0603 539.028 66.79C540.045 69.5084 540.463 72.7689 540.283 76.5715C540.113 80.3972 539.4 83.6414 538.144 86.3041C536.899 88.9673 535.195 90.9673 533.031 92.3041C530.868 93.641 528.321 94.2442 525.392 94.1137ZM525.664 88.0004C527.662 88.0894 529.302 87.1558 530.583 85.1995C531.864 83.2432 532.589 80.2555 532.756 76.2362C532.874 73.5911 532.699 71.3766 532.232 69.5927C531.777 67.8093 531.075 66.4528 530.127 65.5234C529.19 64.5944 528.057 64.1003 526.729 64.0411C524.742 63.9527 523.109 64.8752 521.829 66.8088C520.548 68.7424 519.814 71.6899 519.627 75.6514C519.508 78.3306 519.675 80.5789 520.129 82.3963C520.595 84.2029 521.302 85.5766 522.249 86.5175C523.198 87.447 524.336 87.9413 525.664 88.0004ZM544.511 88.0551L544.769 82.2483L560.348 59.9593L565.355 60.1823L564.998 68.2198L562.035 68.0878L552.21 82.2044L552.198 82.4769L572.888 83.3985L572.625 89.3074L544.511 88.0551ZM560.978 94.931L561.329 87.0297L561.58 84.4645L562.664 60.0624L569.578 60.3704L568.028 95.245L560.978 94.931Z" fill="#053060"/>
<path d="M485.44 141.152L486.512 123.731L497.027 124.38L496.911 126.251L488.507 125.732L488.144 131.619L496.004 132.104L495.889 133.975L488.029 133.49L487.664 139.411L496.205 139.938L496.09 141.809L485.44 141.152ZM499.756 142.036L500.829 124.614L506.715 124.977C508.077 125.061 509.179 125.363 510.024 125.882C510.869 126.395 511.477 127.067 511.847 127.898C512.217 128.73 512.37 129.658 512.307 130.685C512.244 131.711 511.978 132.609 511.509 133.377C511.041 134.145 510.359 134.729 509.463 135.129C508.568 135.523 507.445 135.679 506.096 135.596L501.332 135.302L501.449 133.396L506.145 133.686C507.075 133.744 507.832 133.654 508.416 133.416C509.005 133.18 509.443 132.819 509.729 132.336C510.021 131.847 510.188 131.254 510.231 130.557C510.274 129.859 510.182 129.242 509.953 128.704C509.724 128.166 509.332 127.738 508.777 127.419C508.222 127.094 507.474 126.903 506.532 126.845L502.823 126.616L501.866 142.166L499.756 142.036ZM508.438 134.716L512.244 142.806L509.794 142.655L506.056 134.569L508.438 134.716ZM515.078 142.981L516.151 125.56L522.038 125.923C523.399 126.007 524.502 126.308 525.346 126.827C526.192 127.341 526.799 128.013 527.169 128.844C527.539 129.675 527.693 130.604 527.629 131.631C527.566 132.657 527.3 133.554 526.832 134.322C526.363 135.09 525.681 135.674 524.786 136.075C523.89 136.469 522.768 136.625 521.418 136.541L516.654 136.247L516.772 134.342L521.467 134.632C522.397 134.689 523.154 134.599 523.738 134.362C524.328 134.125 524.766 133.765 525.051 133.282C525.343 132.793 525.511 132.2 525.554 131.502C525.597 130.805 525.504 130.187 525.275 129.649C525.046 129.112 524.654 128.683 524.099 128.364C523.544 128.04 522.796 127.848 521.855 127.79L518.146 127.561L517.188 143.111L515.078 142.981ZM523.761 135.661L527.566 143.752L525.116 143.601L521.379 135.514L523.761 135.661ZM545.637 136.123C545.523 137.961 545.094 139.528 544.348 140.825C543.602 142.123 542.628 143.099 541.427 143.753C540.225 144.408 538.881 144.689 537.396 144.598C535.91 144.506 534.611 144.061 533.499 143.264C532.386 142.467 531.54 141.379 530.959 139.999C530.378 138.62 530.144 137.011 530.257 135.174C530.37 133.337 530.8 131.769 531.545 130.472C532.291 129.174 533.265 128.198 534.467 127.544C535.668 126.889 537.012 126.608 538.498 126.7C539.984 126.791 541.283 127.236 542.395 128.033C543.507 128.83 544.354 129.919 544.935 131.298C545.516 132.677 545.75 134.286 545.637 136.123ZM543.595 135.997C543.688 134.489 543.514 133.2 543.073 132.131C542.638 131.062 542.009 130.235 541.185 129.649C540.367 129.064 539.431 128.738 538.376 128.673C537.321 128.608 536.349 128.816 535.46 129.296C534.577 129.776 533.851 130.52 533.282 131.527C532.719 132.534 532.391 133.792 532.298 135.3C532.205 136.809 532.377 138.097 532.812 139.166C533.253 140.235 533.882 141.062 534.7 141.648C535.523 142.233 536.462 142.559 537.517 142.624C538.572 142.689 539.541 142.481 540.425 142.001C541.314 141.521 542.04 140.777 542.603 139.77C543.171 138.763 543.502 137.506 543.595 135.997ZM548.647 145.053L549.72 127.631L555.607 127.995C556.968 128.079 558.071 128.38 558.915 128.899C559.761 129.412 560.368 130.084 560.738 130.916C561.108 131.747 561.262 132.676 561.198 133.702C561.135 134.729 560.869 135.626 560.401 136.394C559.932 137.162 559.25 137.746 558.355 138.146C557.459 138.541 556.337 138.696 554.987 138.613L550.223 138.319L550.341 136.413L555.036 136.703C555.966 136.761 556.723 136.671 557.307 136.433C557.897 136.197 558.335 135.837 558.62 135.353C558.912 134.865 559.08 134.272 559.123 133.574C559.166 132.876 559.073 132.259 558.844 131.721C558.615 131.183 558.223 130.755 557.668 130.436C557.113 130.111 556.365 129.92 555.424 129.862L551.715 129.633L550.757 145.183L548.647 145.053ZM557.33 137.733L561.135 145.823L558.685 145.672L554.948 137.586L557.33 137.733Z" fill="#1C1C1C" fill-opacity="0.54"/>
<path d="M449.776 177.88L450.655 160.448L461.108 160.976L461.014 162.849L452.672 162.427L452.375 168.318L459.933 168.7L459.839 170.572L452.28 170.19L451.887 177.987L449.776 177.88ZM478.992 170.618C478.9 172.457 478.488 174.029 477.756 175.335C477.025 176.64 476.062 177.627 474.867 178.295C473.673 178.963 472.333 179.259 470.846 179.184C469.359 179.109 468.055 178.679 466.934 177.894C465.813 177.109 464.955 176.031 464.358 174.658C463.762 173.285 463.51 171.679 463.603 169.841C463.696 168.002 464.108 166.43 464.839 165.124C465.571 163.819 466.533 162.832 467.728 162.164C468.922 161.496 470.262 161.2 471.749 161.275C473.236 161.35 474.54 161.78 475.661 162.565C476.782 163.35 477.64 164.429 478.237 165.801C478.833 167.174 479.085 168.78 478.992 170.618ZM476.949 170.515C477.026 169.006 476.837 167.719 476.385 166.655C475.938 165.591 475.299 164.771 474.469 164.194C473.645 163.618 472.705 163.303 471.65 163.25C470.594 163.197 469.624 163.415 468.741 163.905C467.863 164.395 467.145 165.147 466.587 166.16C466.036 167.173 465.722 168.435 465.646 169.944C465.57 171.453 465.755 172.74 466.202 173.804C466.655 174.868 467.293 175.688 468.117 176.264C468.947 176.841 469.89 177.156 470.946 177.209C472.001 177.263 472.968 177.044 473.846 176.554C474.73 176.064 475.447 175.312 475.999 174.299C476.557 173.286 476.873 172.025 476.949 170.515ZM482.102 179.514L482.981 162.082L488.872 162.379C490.233 162.448 491.34 162.737 492.19 163.247C493.041 163.751 493.656 164.416 494.035 165.243C494.414 166.07 494.578 166.997 494.526 168.024C494.474 169.051 494.219 169.951 493.759 170.725C493.299 171.498 492.623 172.09 491.732 172.5C490.841 172.904 489.72 173.072 488.37 173.004L483.603 172.763L483.699 170.856L488.398 171.094C489.329 171.141 490.084 171.042 490.666 170.799C491.253 170.555 491.686 170.19 491.967 169.704C492.253 169.212 492.414 168.617 492.449 167.919C492.485 167.221 492.385 166.605 492.15 166.069C491.915 165.534 491.519 165.11 490.96 164.797C490.401 164.479 489.651 164.296 488.709 164.248L484.998 164.061L484.213 179.621L482.102 179.514ZM490.703 172.098L494.598 180.145L492.146 180.022L488.319 171.977L490.703 172.098ZM497.434 180.289L498.313 162.856L504.408 163.164C505.622 163.226 506.613 163.486 507.381 163.946C508.149 164.4 508.708 164.989 509.058 165.712C509.409 166.429 509.563 167.214 509.52 168.065C509.482 168.814 509.317 169.426 509.026 169.9C508.74 170.375 508.375 170.744 507.929 171.006C507.489 171.268 507.016 171.454 506.51 171.565L506.502 171.736C507.033 171.797 507.56 172.011 508.082 172.379C508.604 172.746 509.03 173.257 509.361 173.911C509.693 174.565 509.835 175.352 509.789 176.271C509.745 177.145 509.506 177.921 509.074 178.599C508.641 179.276 507.987 179.798 507.109 180.163C506.232 180.529 505.106 180.676 503.733 180.607L497.434 180.289ZM499.64 178.523L503.827 178.734C505.206 178.804 506.199 178.587 506.804 178.083C507.416 177.573 507.741 176.935 507.78 176.169C507.81 175.579 507.687 175.027 507.411 174.512C507.136 173.992 506.728 173.567 506.187 173.239C505.646 172.904 504.996 172.718 504.235 172.679L499.945 172.462L499.64 178.523ZM500.038 170.624L503.953 170.822C504.589 170.854 505.168 170.758 505.692 170.534C506.221 170.31 506.647 169.979 506.971 169.54C507.3 169.102 507.48 168.576 507.511 167.963C507.55 167.197 507.316 166.534 506.809 165.974C506.303 165.408 505.471 165.096 504.313 165.037L500.33 164.836L500.038 170.624ZM516.014 163.751L515.135 181.183L513.024 181.077L513.903 163.644L516.014 163.751ZM524.747 181.669L519.367 181.397L520.246 163.965L525.864 164.249C527.555 164.334 528.985 164.756 530.152 165.515C531.32 166.268 532.192 167.311 532.768 168.642C533.344 169.969 533.587 171.534 533.496 173.339C533.404 175.154 533.002 176.701 532.289 177.98C531.576 179.252 530.583 180.209 529.311 180.85C528.038 181.485 526.517 181.758 524.747 181.669ZM521.573 179.631L524.705 179.79C526.146 179.862 527.355 179.645 528.33 179.136C529.306 178.628 530.053 177.872 530.57 176.869C531.087 175.865 531.381 174.654 531.453 173.235C531.524 171.828 531.355 170.605 530.946 169.566C530.538 168.521 529.891 167.703 529.005 167.113C528.119 166.516 526.995 166.183 525.633 166.114L522.263 165.944L521.573 179.631ZM541.975 182.54L536.595 182.268L537.474 164.835L543.092 165.119C544.783 165.205 546.213 165.627 547.38 166.386C548.548 167.139 549.42 168.181 549.996 169.513C550.572 170.839 550.815 172.405 550.724 174.209C550.632 176.025 550.23 177.572 549.517 178.85C548.804 180.123 547.811 181.079 546.539 181.721C545.267 182.356 543.745 182.629 541.975 182.54ZM538.801 180.502L541.933 180.66C543.374 180.733 544.583 180.515 545.558 180.007C546.534 179.499 547.281 178.743 547.798 177.739C548.315 176.736 548.609 175.525 548.681 174.106C548.752 172.699 548.583 171.475 548.175 170.437C547.766 169.392 547.119 168.574 546.233 167.983C545.347 167.387 544.223 167.054 542.861 166.985L539.491 166.815L538.801 180.502ZM553.823 183.138L554.702 165.706L565.223 166.238L565.129 168.11L556.719 167.685L556.422 173.576L564.287 173.973L564.192 175.846L556.327 175.448L556.029 181.372L564.574 181.804L564.48 183.677L553.823 183.138ZM582.851 167.128L581.972 184.561L579.929 184.458L571.12 170.29L570.95 170.282L570.26 183.969L568.149 183.862L569.028 166.43L571.071 166.533L579.912 180.736L580.082 180.745L580.774 167.023L582.851 167.128Z" fill="#1C1C1C" fill-opacity="0.54"/>
</g>
<defs>
<clipPath id="clip0_3359_4131">
<rect width="807" height="696" fill="white"/>
</clipPath>
</defs>
</svg>
