<svg width="20" height="20" viewBox="0 0 20 20" fill="none" xmlns="http://www.w3.org/2000/svg">
<g id="Group 237527">
<g id="Group 237528">
<path id="Vector" d="M10.0004 4.00024C8.95745 4.00157 7.95759 4.41647 7.22011 5.15395C6.48263 5.89143 6.06773 6.89129 6.06641 7.93424H8.06641C8.06641 6.86724 8.93441 6.00024 10.0004 6.00024C11.0664 6.00024 11.9344 6.86724 11.9344 7.93424C11.9344 8.53224 11.4534 8.96625 10.7184 9.56025C10.4783 9.74834 10.2477 9.94826 10.0274 10.1592C9.02941 11.1562 9.00041 12.2152 9.00041 12.3332V13.0002H11.0004L10.9994 12.3672C11.0004 12.3512 11.0324 11.9812 11.4404 11.5742C11.5904 11.4242 11.7794 11.2742 11.9754 11.1162C12.7544 10.4852 13.9334 9.53224 13.9334 7.93424C13.9326 6.8913 13.518 5.89128 12.7806 5.15372C12.0433 4.41615 11.0434 4.0013 10.0004 4.00024ZM9.00041 14.0002H11.0004V16.0002H9.00041V14.0002Z" fill="#706E6E" fill-opacity="0.45"/>
<path id="Vector_2" d="M10 0C4.486 0 0 4.486 0 10C0 15.514 4.486 20 10 20C15.514 20 20 15.514 20 10C20 4.486 15.514 0 10 0ZM10 18C5.589 18 2 14.411 2 10C2 5.589 5.589 2 10 2C14.411 2 18 5.589 18 10C18 14.411 14.411 18 10 18Z" fill="#706E6E" fill-opacity="0.45"/>
</g>
</g>
</svg>
