<svg width="23" height="25" viewBox="0 0 23 25" fill="none" xmlns="http://www.w3.org/2000/svg">
<path d="M8.0486 23.1116V19.4058C8.04858 18.4667 8.81219 17.7038 9.75803 17.6979H13.231C14.1811 17.6979 14.9512 18.4625 14.9512 19.4058V23.1008C14.9512 23.9153 15.6131 24.5772 16.4335 24.5831H18.8029C19.9095 24.586 20.9717 24.1515 21.7552 23.3757C22.5388 22.5998 22.9791 21.5463 22.9791 20.4477V9.92107C22.9791 9.0336 22.5828 8.19178 21.8972 7.6224L13.8477 1.23124C12.4406 0.11336 10.431 0.149472 9.0656 1.31718L1.18923 7.6224C0.471147 8.175 0.041961 9.01931 0.020752 9.92107V20.4369C0.020752 22.7268 1.8905 24.5831 4.19696 24.5831H6.51227C6.90725 24.586 7.28705 24.4322 7.56737 24.1559C7.84768 23.8796 8.00533 23.5037 8.00532 23.1116H8.0486Z" fill="white"/>
</svg>
