<svg width="22" height="21" viewBox="0 0 22 21" fill="none" xmlns="http://www.w3.org/2000/svg">
<g id="Login">
<path id="Fill 1" opacity="0.4" d="M5.9043 4.7145C5.9043 2.16138 8.13574 0.083252 10.8784 0.083252H16.33C19.0659 0.083252 21.2918 2.15617 21.2918 4.70408V16.2833C21.2918 18.8374 19.0614 20.9166 16.3188 20.9166H10.8672C8.13127 20.9166 5.9043 18.8426 5.9043 16.2937V15.3145V4.7145Z" fill="#878787"/>
<path id="Fill 4" d="M15.374 9.93107L12.1588 6.90086C11.8265 6.58836 11.2917 6.58836 10.9605 6.90295C10.6304 7.21753 10.6315 7.72482 10.9627 8.03732L12.7233 9.6967H1.55577C1.08812 9.6967 0.708496 10.0561 0.708496 10.4998C0.708496 10.9425 1.08812 11.3009 1.55577 11.3009H12.7233L10.9627 12.9613C10.6315 13.2738 10.6304 13.7811 10.9605 14.0957C11.1266 14.2529 11.3434 14.3321 11.5613 14.3321C11.777 14.3321 11.9937 14.2529 12.1588 14.0977L15.374 11.0675C15.5336 10.9165 15.6238 10.7123 15.6238 10.4998C15.6238 10.2863 15.5336 10.0821 15.374 9.93107Z" fill="#878787"/>
</g>
</svg>
