<svg width="14" height="19" viewBox="0 0 14 19" fill="none" xmlns="http://www.w3.org/2000/svg">
<path id="Vector" d="M6.63177 9.50371C6.44948 8.90996 6.45312 7.76328 6.55885 7.76328C6.8651 7.76328 6.83594 9.13262 6.63177 9.50371ZM6.56979 11.2553C6.28906 12.0049 5.93906 12.8621 5.53437 13.582C6.20156 13.3223 6.95625 12.9438 7.8276 12.7693C7.36458 12.4131 6.91979 11.901 6.56979 11.2553ZM3.13906 15.8865C3.13906 15.9162 3.62031 15.6861 4.41146 14.3947C4.16719 14.6285 3.35052 15.3039 3.13906 15.8865ZM9.04167 5.9375H14V18.1094C14 18.6029 13.6099 19 13.125 19H0.875C0.390104 19 0 18.6029 0 18.1094V0.890625C0 0.39707 0.390104 0 0.875 0H8.16667V5.04688C8.16667 5.53672 8.56042 5.9375 9.04167 5.9375ZM8.75 12.3129C8.02083 11.8602 7.53594 11.2367 7.19323 10.3164C7.35729 9.62988 7.61615 8.58711 7.41927 7.93398C7.24792 6.84297 5.87344 6.95059 5.67656 7.68164C5.49427 8.36074 5.66198 9.31816 5.97187 10.5391C5.54896 11.5633 4.92552 12.9363 4.48438 13.723C4.48073 13.723 4.48073 13.7268 4.47708 13.7268C3.48906 14.2426 1.79375 15.3781 2.4901 16.2502C2.69427 16.5063 3.07344 16.6213 3.27396 16.6213C3.92656 16.6213 4.57552 15.9533 5.50156 14.3279C6.44219 14.0125 7.47396 13.6191 8.38177 13.467C9.17292 13.9049 10.099 14.1906 10.7151 14.1906C11.7797 14.1906 11.8526 13.0031 11.4333 12.5801C10.9266 12.0754 9.45365 12.2201 8.75 12.3129ZM13.7448 3.89648L10.1719 0.259766C10.0078 0.0927734 9.78542 0 9.55208 0H9.33333V4.75H14V4.52363C14 4.28984 13.9089 4.06348 13.7448 3.89648ZM11.0432 13.3705C11.1927 13.2703 10.9521 12.9289 9.48281 13.0365C10.8354 13.6229 11.0432 13.3705 11.0432 13.3705Z" fill="black" fill-opacity="0.44"/>
</svg>
